<svg width="200" height="54" viewBox="0 0 200 54" fill="none" xmlns="http://www.w3.org/2000/svg">
<g clip-path="url(#clip0_136_14081)">
<path d="M63.5271 41.6326C62.6961 42.9946 61.7496 44.2642 60.6877 45.4415C56.094 50.5431 49.5151 53.821 42.1744 54.0057L37.9038 37.4775L51.4772 29.7905L63.5271 41.6326Z" fill="url(#paint0_linear_136_14081)"/>
<path d="M97.7838 11.0464H92.9592V36.9928H111.334V32.907H97.7838V11.0464Z" fill="#080F2B"/>
<path d="M129.247 19.6106C127.655 17.8331 125.438 16.979 122.899 16.979C117.128 16.979 112.904 20.9495 112.904 27.0898C112.904 33.2532 117.128 37.2468 122.899 37.2468C125.6 37.2468 127.908 36.3234 129.455 34.4305V36.9929H133.864V17.2098H129.224V19.6106H129.247ZM123.43 33.2763C120.083 33.2763 117.567 30.8756 117.567 27.0898C117.567 23.304 120.083 20.9033 123.43 20.9033C126.8 20.9033 129.317 23.304 129.317 27.0898C129.317 30.8756 126.8 33.2763 123.43 33.2763Z" fill="#080F2B"/>
<path d="M164.935 16.979C161.796 16.979 159.118 18.2486 157.525 20.28C156.163 18.064 153.739 16.979 150.854 16.979C148.153 16.979 145.845 17.9485 144.367 19.726V17.2098H139.958V36.9929H144.598V26.9513C144.598 23.027 146.676 21.0187 149.746 21.0187C152.562 21.0187 154.201 22.7269 154.201 26.2357V36.9929H158.818V26.9513C158.818 23.027 160.942 21.0187 163.966 21.0187C166.782 21.0187 168.421 22.7269 168.421 26.2357V36.9929H173.061V25.6586C173.038 19.6798 169.714 16.979 164.935 16.979Z" fill="#080F2B"/>
<path d="M189.958 16.979C187.257 16.979 184.949 17.9024 183.402 19.7953V17.2098H178.993V44.1951H183.633V34.5921C185.226 36.4158 187.442 37.2699 189.981 37.2699C195.752 37.2699 200.023 33.2763 200.023 27.1129C200 20.9725 195.729 16.979 189.958 16.979ZM189.427 33.2763C186.103 33.2763 183.541 30.8756 183.541 27.0898C183.541 23.304 186.103 20.9033 189.427 20.9033C192.751 20.9033 195.291 23.304 195.291 27.0898C195.291 30.8756 192.775 33.2763 189.427 33.2763Z" fill="#080F2B"/>
<path d="M24.3767 11L14.2659 28.1976L3.97045 11H0V36.9464H4.59372V19.9797L13.1117 33.9686H15.2585L23.7996 19.7488L23.8227 36.9464H28.3934L28.3472 11H24.3767Z" fill="#080F2B"/>
<path d="M84.1872 19.5642C82.5944 17.7867 80.3784 16.9326 77.8391 16.9326C72.0681 16.9326 67.8438 20.9031 67.8438 27.0434C67.8438 33.2069 72.0681 37.2004 77.8391 37.2004C80.54 37.2004 82.8484 36.277 84.395 34.3841V36.9465H88.804V17.1635H84.1642V19.5642H84.1872ZM78.3701 33.2299C75.046 33.2299 72.5067 30.8292 72.5067 27.0434C72.5067 23.2576 75.0229 20.8569 78.3701 20.8569C81.7403 20.8569 84.2565 23.2576 84.2565 27.0434C84.2565 30.8292 81.7403 33.2299 78.3701 33.2299Z" fill="#080F2B"/>
<path d="M37.2807 19.01L38.6427 21.3646C39.1043 21.4108 39.5198 21.6416 39.7969 22.034C41.9898 21.4108 44.1597 22.1725 45.5909 24.0424L47.8763 26.2815L50.9003 24.5502C50.7156 24.1578 50.4617 23.6499 50.277 23.3267C47.3453 18.2021 42.0822 16.7016 37.2807 19.01ZM32.687 33.299C33.9797 35.5382 35.8264 37.1079 37.9963 37.8466L35.8726 29.6056C35.0185 27.3895 35.4571 25.1735 37.0268 23.6038C36.819 23.1652 36.819 22.6804 37.0268 22.2418L35.6879 19.9103C31.2327 23.0036 29.8938 28.4745 32.687 33.299Z" fill="#080F2B"/>
<path d="M52.3315 30.6212C51.662 33.0219 49.8846 35.0764 47.2299 36.6231C43.9981 38.4929 40.7664 38.816 37.9963 37.8465L35.8726 29.6055L45.5909 23.9961L47.8763 26.2352L37.4423 32.2602C39.3813 34.4762 42.3823 34.8918 45.3601 33.1605C47.2761 32.0524 48.4534 30.575 48.9381 28.6129C49.0535 28.2205 49.0997 27.805 49.1228 27.4587L52.3315 30.6212Z" fill="#FFA300"/>
<path d="M62.4421 33.3914C60.7108 33.3914 59.6951 32.3526 59.6951 30.4366V20.9953H65.0044V17.3018H59.6951V12.7773H55.0552V30.529C55.0552 34.8918 57.5483 37.2002 61.865 37.2002C63.527 37.2002 65.2121 36.7616 66.3202 35.8614L65.0275 32.5604C64.335 33.1144 63.4116 33.3914 62.4421 33.3914Z" fill="#080F2B"/>
</g>
<defs>
<linearGradient id="paint0_linear_136_14081" x1="45.3067" y1="34.3014" x2="52.4165" y2="47.0419" gradientUnits="userSpaceOnUse">
<stop stop-color="#FFA300" stop-opacity="0.8"/>
<stop offset="1" stop-color="#FFA300" stop-opacity="0"/>
</linearGradient>
<clipPath id="clip0_136_14081">
<rect width="200" height="54" fill="white"/>
</clipPath>
</defs>
</svg>
